<svg width="60" height="58" viewBox="0 0 60 58" fill="none" xmlns="http://www.w3.org/2000/svg">
<g id="Group 174">
<path id="Ellipse 1" d="M58.6788 29C58.6788 44.7375 45.849 57.5 30.0168 57.5C14.1845 57.5 1.35474 44.7375 1.35474 29C1.35474 13.2625 14.1845 0.5 30.0168 0.5C45.849 0.5 58.6788 13.2625 58.6788 29Z" fill="#D9D9D9" stroke="#FF5F6D"/>
<g id="&#240;&#159;&#166;&#134; icon &#34;bell&#34;">
<path id="Vector" d="M30.0167 44C30.7487 44 31.4276 43.7598 31.9858 43.3503C33.5203 42.2244 31.92 40.375 30.0167 40.375C28.1135 40.375 26.5132 42.2244 28.0477 43.3503C28.6059 43.7598 29.2847 44 30.0167 44ZM41.6199 35.5203C40.5791 34.3445 38.6317 32.5756 38.6317 26.7812C38.6317 22.8118 36.2442 19.5566 32.8723 18.3221C32.2252 18.0852 31.7395 17.5016 31.7395 16.8125C31.7395 15.8117 30.9681 15 30.0167 15C29.0654 15 28.294 15.8117 28.294 16.8125C28.294 17.5016 27.8083 18.0852 27.1612 18.3221C23.7893 19.5566 21.4018 22.8118 21.4018 26.7812C21.4018 32.5756 19.4543 34.3445 18.4136 35.5203C18.0903 35.8857 17.9471 36.3224 17.9497 36.75C17.9557 37.6789 18.649 38.5625 19.679 38.5625H40.3545C41.3845 38.5625 42.0784 37.6789 42.0837 36.75C42.0864 36.3224 41.9431 35.8851 41.6199 35.5203Z" fill="#4C5462"/>
</g>
</g>
</svg>
